# xmcd
#
# Track frame offsets:
#	150
#	10545
#	36881
#	61519
#	88753
#	116085
#	145046
#	169186
#	197967
#	221022
#
# Disc length: 3202 seconds
#
# Revision: 1
# Processed by: cddbd v1.5.1PL2 Copyright (c) Steve Scherf et al.
# Submitted via: EasyCDDAExtractor 9.0.0.1
#
DISCID=840c800a
DTITLE=Blue Oyster Cult - Cow Palace San Fransisco 25-11-83 Disc 1
DYEAR=1983
DGENRE=Hard Rock
TTITLE0=Intro
TTITLE1=Cities On Flame
TTITLE2=Before The Kiss
TTITLE3=ETI
TTITLE4=Hot Rails To Hell
TTITLE5=Take Me Away
TTITLE6=Shadow On California ("Where's My Wallet")
TTITLE7=Joan Crawford
TTITLE8=Shooting Shark
TTITLE9=Born To Rock
EXTD=
EXTT0=
EXTT1=
EXTT2=
EXTT3=
EXTT4=
EXTT5=
EXTT6=
EXTT7=
EXTT8=
EXTT9=
PLAYORDER=
